<?xml version="1.0" encoding="iso-8859-1"?>
<!-- Generator: Adobe Illustrator 19.0.0, SVG Export Plug-In . SVG Version: 6.00 Build 0)  -->
<svg version="1.1" id="Capa_1" xmlns="http://www.w3.org/2000/svg" xmlns:xlink="http://www.w3.org/1999/xlink" x="0px" y="0px"
	 viewBox="0 0 512 512" style="enable-background:new 0 0 512 512;" xml:space="preserve">
<path style="fill:#FE585D;" d="M449.472,55.704c15.48,21.496,23.208,47.232,23.208,77.192c0,30.872-7.808,55.688-23.416,74.44
	c-8.728,10.52-21.584,20.128-38.568,28.824c25.808,9.376,45.28,24.24,58.416,44.6s19.696,45.056,19.696,74.096
	c0,29.968-7.504,56.832-22.512,80.624c-9.544,15.776-21.488,29.048-35.816,39.792c-16.144,12.352-35.184,20.824-57.136,25.392
	c-21.944,4.576-45.76,6.856-71.456,6.856H74.056V1.848h244.368C380.088,2.76,423.768,20.712,449.472,55.704z M174.912,89.672
	v111.496h122.896c21.96,0,39.784-4.168,53.48-12.52c13.688-8.344,20.536-23.16,20.536-44.424c0-23.552-9.056-39.112-27.16-46.656
	c-15.624-5.256-35.536-7.888-59.76-7.888H174.912V89.672z M174.912,284.864v134.832H297.68c21.92,0,39-2.976,51.208-8.92
	c22.152-10.976,33.232-32.016,33.232-63.128c0-26.296-10.744-44.368-32.216-54.2c-11.984-5.488-28.832-8.344-50.528-8.576H174.912
	V284.864z"/>
<g>
	<g style="opacity:0.35;">
		<polygon style="fill:#FFFFFF;" points="0,512 0,0 512,0 		"/>
	</g>
</g>
<g>
</g>
<g>
</g>
<g>
</g>
<g>
</g>
<g>
</g>
<g>
</g>
<g>
</g>
<g>
</g>
<g>
</g>
<g>
</g>
<g>
</g>
<g>
</g>
<g>
</g>
<g>
</g>
<g>
</g>
</svg>
